<svg id="Layer_1" data-name="Layer 1" xmlns="http://www.w3.org/2000/svg" viewBox="0 0 545.33 94.02"><defs><style>.cls-1{fill:#231f20;}.cls-2{fill:#ef3955;}</style></defs><path class="cls-1" d="M24.55,23.58c8.11,0,15.26,3.38,19.61,9.56L33.24,41a10,10,0,0,0-8.69-4.54c-5.71,0-11.21,4.06-11.21,10.53A11,11,0,0,0,24.55,57.79a10,10,0,0,0,8.69-4.55L44.16,61c-4.25,6.18-11.5,9.66-19.61,9.66C11.69,70.64,0,61.17,0,47S11.69,23.58,24.55,23.58Z"/><path class="cls-1" d="M50.15,47c0-14.3,10.53-23.38,23.38-23.38S97,32.66,97,47,86.29,70.45,73.53,70.45,50.15,61.17,50.15,47Zm33.63,0a10.2,10.2,0,1,0-20.39,0,10.2,10.2,0,1,0,20.39,0Z"/><path class="cls-1" d="M120.1,69.67H106.67V24.54H120.1v6.58a15,15,0,0,1,13.05-7.54c10.15,0,16.52,6.28,16.52,19.13v27H136.24V45.61c0-6.09-3.28-9-7.83-9-4.73,0-8.31,2.32-8.31,9.18Z"/><path class="cls-1" d="M175,69.67H161.55V24.54H175v6.58A15,15,0,0,1,188,23.58c10.15,0,16.52,6.28,16.52,19.13v27H191.12V45.61c0-6.09-3.28-9-7.83-9-4.73,0-8.31,2.32-8.31,9.18Z"/><path class="cls-1" d="M213.73,47c0-14.3,10.53-23.38,23.38-23.38S260.59,32.66,260.59,47s-10.72,23.49-23.48,23.49S213.73,61.17,213.73,47Zm33.63,0A10.2,10.2,0,1,0,227,47a10.2,10.2,0,1,0,20.39,0Z"/><path class="cls-2" d="M276.92,0a7.89,7.89,0,0,1,8.21,7.83,8,8,0,0,1-8.21,7.92c-4.54,0-8.41-3.57-8.41-7.92S272.38,0,276.92,0Zm6.67,69.67H270.25V24.54h13.34Z"/><path class="cls-1" d="M307.64,51.12C294,47.54,294.12,40.59,294.12,36.43c0-6.67,8.11-12.85,17.58-12.85,8.89,0,18.56,3.86,18.56,15H317.6c-.1-3.39-2.9-4-5.12-4-3,0-4.84,1.36-4.74,3.39.1,1.45,1.26,2.7,4,3.38l7.64,2c10.92,3.09,12.27,10.14,12.27,13.14,0,9.57-10.05,14.11-19.52,14.11-9.08,0-18.84-5.51-18.84-15.56h12.56c.1,2.61,2.9,5.22,6.67,5.22,3-.1,5.5-1.45,5.5-3.77,0-1.93-1.06-3-4.44-3.87Z"/><path class="cls-1" d="M352.77,51.12c-13.63-3.58-13.53-10.53-13.53-14.69,0-6.67,8.12-12.85,17.59-12.85,8.89,0,18.55,3.86,18.55,15H362.72c-.1-3.39-2.9-4-5.12-4-3,0-4.83,1.36-4.74,3.39.1,1.45,1.26,2.7,4,3.38l7.63,2c10.92,3.09,12.27,10.14,12.27,13.14,0,9.57-10.05,14.11-19.52,14.11-9.08,0-18.84-5.51-18.84-15.56h12.56c.1,2.61,2.9,5.22,6.67,5.22,3-.1,5.51-1.45,5.51-3.77,0-1.93-1.07-3-4.45-3.87Z"/><path class="cls-1" d="M427.65,61.46c-4.64,6.76-12.85,9.18-20.58,9.18-12.85,0-23.58-9.47-23.58-23.68s10.73-23.38,23.58-23.38,23.09,9.56,23.09,23.77c0,1.16-.09,3-.19,4.16H396.92C397.7,56.72,403.2,59,408,59c3.76,0,7.63-1.25,9.85-4.25Zm-11-18.36c-.78-5.51-5.61-7.73-9.47-7.73-3.68,0-9,1.93-10.05,7.73Z"/><path class="cls-1" d="M468.42,24.54h13.44V69.67H468.42V63.49a13.71,13.71,0,0,1-11.69,7.15c-10.14,0-17.87-6.28-17.87-19.13v-27h13.43V48.61c0,7.24,4.92,9,8,9,4.15,0,8.11-2.32,8.11-9.18Z"/><path class="cls-1" d="M507.65,69.67H494.22V24.54h13.43V35.46c2.32-8.4,8.12-11.88,12.76-11.88a17,17,0,0,1,7.73,1.64L525.72,37.3A15,15,0,0,0,518.86,36c-7.73,0-11.21,6-11.21,18Z"/><path class="cls-2" d="M536.93,54.5a8.07,8.07,0,1,1-8.31,8A8.06,8.06,0,0,1,536.93,54.5Z"/><rect class="cls-2" y="0.01" width="119.5" height="7.57"/><rect class="cls-1" x="425.84" y="86.45" width="119.5" height="7.57"/></svg>