<?xml version="1.0" encoding="utf-8"?>
<!-- Generator: Adobe Illustrator 24.3.0, SVG Export Plug-In . SVG Version: 6.00 Build 0)  -->
<svg version="1.1" id="Layer_1" xmlns="http://www.w3.org/2000/svg" xmlns:xlink="http://www.w3.org/1999/xlink" x="0px" y="0px"
	 viewBox="0 0 545.3 94" style="enable-background:new 0 0 545.3 94;" xml:space="preserve">
<style type="text/css">
	.st0{fill:#FFFFFF;}
	.st1{fill:#EF3955;}
</style>
<path class="st0" d="M24.5,23.6c8.1,0,15.3,3.4,19.6,9.6L33.2,41c-1.9-2.9-5.2-4.6-8.7-4.5c-5.7,0-11.2,4.1-11.2,10.5
	c0.1,6.1,5.1,10.9,11.2,10.8l0,0c3.5,0.1,6.8-1.6,8.7-4.5l11,7.7c-4.2,6.2-11.5,9.7-19.6,9.7C11.7,70.6,0,61.2,0,47
	S11.7,23.6,24.5,23.6z"/>
<path class="st0" d="M50.2,47c0-14.3,10.5-23.4,23.4-23.4S97,32.7,97,47S86.3,70.4,73.5,70.4S50.2,61.2,50.2,47z M83.8,47
	c0.2-5.6-4.2-10.3-9.9-10.5c-5.6-0.2-10.3,4.2-10.5,9.9c0,0.2,0,0.4,0,0.6c-0.2,5.6,4.2,10.3,9.9,10.5c5.6,0.2,10.3-4.2,10.5-9.9
	C83.8,47.4,83.8,47.2,83.8,47z"/>
<path class="st0" d="M120.1,69.7h-13.4V24.5h13.4v6.6c2.7-4.7,7.7-7.6,13-7.5c10.1,0,16.5,6.3,16.5,19.1v27h-13.4V45.6
	c0-6.1-3.3-9-7.8-9c-4.7,0-8.3,2.3-8.3,9.2L120.1,69.7z"/>
<path class="st0" d="M175,69.7h-13.4V24.5H175v6.6c2.7-4.7,7.6-7.5,13-7.5c10.1,0,16.5,6.3,16.5,19.1v27h-13.4V45.6
	c0-6.1-3.3-9-7.8-9c-4.7,0-8.3,2.3-8.3,9.2V69.7z"/>
<path class="st0" d="M213.7,47c0-14.3,10.5-23.4,23.4-23.4s23.5,9,23.5,23.4s-10.7,23.5-23.5,23.5S213.7,61.2,213.7,47z M247.4,47
	c0.4-5.6-3.9-10.5-9.5-10.8c-5.6-0.4-10.5,3.9-10.8,9.5c0,0.4,0,0.9,0,1.3c-0.2,5.6,4.2,10.3,9.9,10.5c5.6,0.2,10.3-4.2,10.5-9.9
	C247.4,47.4,247.4,47.2,247.4,47L247.4,47z"/>
<path class="st0" d="M276.9,0c4.4-0.2,8,3.2,8.2,7.6c0,0.1,0,0.2,0,0.3c0,4.4-3.7,8-8.1,7.9h-0.1c-4.5,0-8.4-3.6-8.4-7.9
	S272.4,0,276.9,0z M283.6,69.7h-13.3V24.5h13.3V69.7z"/>
<path class="st0" d="M307.6,51.1c-13.6-3.6-13.5-10.5-13.5-14.7c0-6.7,8.1-12.9,17.6-12.9c8.9,0,18.6,3.9,18.6,15h-12.7
	c-0.1-3.4-2.9-4-5.1-4c-3,0-4.8,1.4-4.7,3.4c0.1,1.5,1.3,2.7,4,3.4l7.6,2c10.9,3.1,12.3,10.1,12.3,13.1c0,9.6-10,14.1-19.5,14.1
	c-9.1,0-18.8-5.5-18.8-15.6H306c0.1,2.6,2.9,5.2,6.7,5.2c3-0.1,5.5-1.5,5.5-3.8c0-1.9-1.1-3-4.4-3.9L307.6,51.1z"/>
<path class="st0" d="M352.8,51.1c-13.6-3.6-13.5-10.5-13.5-14.7c0-6.7,8.1-12.9,17.6-12.9c8.9,0,18.5,3.9,18.5,15h-12.7
	c-0.1-3.4-2.9-4-5.1-4c-3,0-4.8,1.4-4.7,3.4c0.1,1.5,1.3,2.7,4,3.4l7.6,2c10.9,3.1,12.3,10.1,12.3,13.1c0,9.6-10,14.1-19.5,14.1
	c-9.1,0-18.8-5.5-18.8-15.6H351c0.1,2.6,2.9,5.2,6.7,5.2c3-0.1,5.5-1.5,5.5-3.8c0-1.9-1.1-3-4.5-3.9L352.8,51.1z"/>
<path class="st0" d="M427.6,61.5c-4.6,6.8-12.9,9.2-20.6,9.2c-12.9,0-23.6-9.5-23.6-23.7s10.7-23.4,23.6-23.4s23.1,9.6,23.1,23.8
	c0,1.2-0.1,3-0.2,4.2h-33c0.8,5.2,6.3,7.5,11.1,7.5c3.8,0,7.6-1.2,9.9-4.2L427.6,61.5z M416.6,43.1c-0.8-5.5-5.6-7.7-9.5-7.7
	c-3.7,0-9,1.9-10,7.7H416.6z"/>
<path class="st0" d="M468.4,24.5h13.4v45.1h-13.4v-6.2c-2.3,4.3-6.8,7-11.7,7.1c-10.1,0-17.9-6.3-17.9-19.1v-27h13.4v24.1
	c0,7.2,4.9,9,8,9c4.1,0,8.1-2.3,8.1-9.2L468.4,24.5z"/>
<path class="st0" d="M507.6,69.7h-13.4V24.5h13.4v10.9c2.3-8.4,8.1-11.9,12.8-11.9c2.7-0.1,5.3,0.5,7.7,1.6l-2.4,12.1
	c-2.2-1-4.5-1.4-6.9-1.3c-7.7,0-11.2,6-11.2,18L507.6,69.7L507.6,69.7z"/>
<path class="st0" d="M536.9,54.5c4.5,0.1,8,3.9,7.8,8.3s-3.9,8-8.3,7.8c-4.4-0.1-7.9-3.7-7.8-8.1c0-4.5,3.7-8,8.1-8
	C536.8,54.5,536.9,54.5,536.9,54.5z"/>
<rect y="0" class="st1" width="119.5" height="7.6"/>
<rect x="425.8" y="86.4" class="st1" width="119.5" height="7.6"/>
</svg>
