<?xml version="1.0" encoding="utf-8"?>
<!-- Generator: Adobe Illustrator 24.3.0, SVG Export Plug-In . SVG Version: 6.00 Build 0)  -->
<svg version="1.1" id="Layer_1" xmlns="http://www.w3.org/2000/svg" xmlns:xlink="http://www.w3.org/1999/xlink" x="0px" y="0px"
	 viewBox="0 0 566.9 566.9" style="enable-background:new 0 0 566.9 566.9;" xml:space="preserve">
<style type="text/css">
	.st0{fill:#1F1F1F;}
	.st1{fill:#EF3955;}
	.st2{fill:#FFFFFF;}
</style>
<path class="st0" d="M119.4,432.2c5-0.2,9.7,2.2,12.7,6.2l-7.1,5.1c-1.2-1.9-3.4-3-5.6-2.9c-3.7,0-7.2,2.6-7.2,6.8
	c0.1,3.9,3.3,7.1,7.2,7l0,0c2.3,0.1,4.4-1,5.6-2.9l7.1,5c-2.9,4.1-7.7,6.4-12.7,6.2c-8.3,0-15.9-6.1-15.9-15.3
	S111.1,432.2,119.4,432.2z"/>
<path class="st0" d="M135.9,447.3c0-9.2,6.8-15.1,15.1-15.1s15.2,5.8,15.2,15.1s-6.9,15.2-15.2,15.2S135.9,456.5,135.9,447.3z
	 M157.6,447.3c-0.1-3.6-3.1-6.5-6.7-6.4s-6.5,3.1-6.4,6.7s3,6.4,6.5,6.4c3.5,0.1,6.5-2.6,6.7-6.1
	C157.7,447.7,157.7,447.5,157.6,447.3z"/>
<path class="st0" d="M181.1,461.9h-8.7v-29.1h8.7v4.2c1.7-3,4.9-4.9,8.4-4.9c6.6,0,10.7,4.1,10.7,12.4v17.4h-8.7v-15.5
	c0-3.9-2.1-5.8-5-5.8s-5.4,1.5-5.4,5.9V461.9z"/>
<path class="st0" d="M216.6,461.9h-8.7v-29.1h8.7v4.2c1.7-3,4.9-4.9,8.4-4.9c6.6,0,10.7,4.1,10.7,12.4v17.4H227v-15.5
	c0-3.9-2.1-5.8-5.1-5.8s-5.4,1.5-5.4,5.9v15.4H216.6z"/>
<path class="st0" d="M241.6,447.3c0-9.2,6.8-15.1,15.1-15.1c8.3,0,15.2,5.9,15.2,15.1s-6.9,15.2-15.2,15.2S241.6,456.5,241.6,447.3z
	 M263.3,447.3c0-3.6-3-6.5-6.7-6.5s-6.5,3-6.5,6.7c0,3.6,3,6.5,6.6,6.5c3.5,0.1,6.5-2.6,6.6-6.2
	C263.3,447.6,263.3,447.4,263.3,447.3z"/>
<path class="st1" d="M282.4,416.9c2.8-0.1,5.2,2.1,5.3,4.9c0,0.1,0,0.1,0,0.2c0,2.9-2.4,5.2-5.3,5.1c0,0,0,0-0.1,0
	c-2.9,0-5.3-2.2-5.4-5.1C277.1,419.1,279.5,416.8,282.4,416.9z M286.7,461.9h-8.6v-29.1h8.6V461.9z"/>
<path class="st0" d="M302.3,450c-8.8-2.3-8.7-6.8-8.7-9.5c0-4.3,5.2-8.3,11.4-8.3c5.8,0,12,2.5,12,9.7h-8.2
	c-0.1-2.2-1.9-2.6-3.3-2.6c-1.9,0-3.1,0.9-3,2.2c0.1,0.9,0.8,1.8,2.5,2.2l4.9,1.3c7,2,7.9,6.6,7.9,8.5c0,6.2-6.5,9.1-12.6,9.1
	c-5.9,0-12.2-3.5-12.2-10h8.1c0.1,1.7,1.9,3.4,4.3,3.4c1.9-0.1,3.6-0.9,3.6-2.4c0-1.2-0.7-1.9-2.9-2.5L302.3,450z"/>
<path class="st0" d="M331.4,450c-8.8-2.3-8.7-6.8-8.7-9.5c0-4.3,5.2-8.3,11.4-8.3c5.8,0,12,2.5,12,9.7h-8.2
	c-0.1-2.2-1.9-2.6-3.3-2.6c-1.9,0-3.1,0.9-3,2.2c0.1,0.9,0.8,1.8,2.5,2.2l4.9,1.3c7,2,7.9,6.6,7.9,8.5c0,6.2-6.5,9.1-12.6,9.1
	c-5.9,0-12.2-3.5-12.2-10h8.1c0.1,1.7,1.9,3.4,4.3,3.4c1.9-0.1,3.6-0.9,3.6-2.4c0-1.2-0.7-1.9-2.9-2.5L331.4,450z"/>
<path class="st0" d="M379.8,456.6c-3,4.4-8.3,5.9-13.3,5.9c-8.2,0.2-15-6.3-15.2-14.5c0-0.3,0-0.5,0-0.8c0-9.2,6.9-15.1,15.2-15.1
	s14.9,6.2,14.9,15.4c0,0.8-0.1,1.9-0.1,2.7H360c0.5,3.4,4.1,4.9,7.2,4.9c2.4,0.1,4.8-0.9,6.4-2.7L379.8,456.6z M372.7,444.8
	c-0.5-3-3.1-5.1-6.1-5c-2.4,0-5.8,1.2-6.5,5H372.7z"/>
<path class="st0" d="M406.1,432.8h8.7v29.1h-8.7v-4c-1.5,2.8-4.4,4.5-7.5,4.6c-6.6,0-11.5-4-11.5-12.4v-17.4h8.7v15.5
	c0,4.7,3.2,5.8,5.2,5.8c2.7,0,5.2-1.5,5.2-5.9L406.1,432.8z"/>
<path class="st0" d="M431.5,461.9h-8.7v-29.1h8.7v7c1.5-5.4,5.2-7.7,8.2-7.7c1.7,0,3.4,0.3,5,1.1l-1.6,7.8c-1.4-0.6-2.9-0.9-4.4-0.9
	c-5,0-7.2,3.9-7.2,11.6V461.9z"/>
<path class="st1" d="M450.4,452.1c2.9,0.1,5.1,2.5,5,5.4s-2.5,5.1-5.4,5c-2.8-0.1-5.1-2.4-5-5.2
	C445.1,454.4,447.5,452.1,450.4,452.1L450.4,452.1z"/>
<path class="st1" d="M282.2,352.6l69,30.9c49.4-24.3,83.4-75.1,83.4-133.9c0-82.4-66.8-149.2-149.2-149.2s-149.2,66.8-149.2,149.2
	c0,57.6,32.6,107.5,80.4,132.4L282.2,352.6z"/>
<path class="st2" d="M215.7,326.5l5.1,5.1c5,4.9,12.6,6,18.8,2.7l8.9-4.8h0.1l20-10.9c1.8-1,3.4-2.2,4.9-3.7l3.4-3.4l0,0l33.6-33.6
	c0.5-0.5,1-1,1.4-1.6l6-8.5c0.9-1.3,0.5-3.1-0.9-4c-1.3-0.8-2.9-0.5-3.8,0.7l-5.2,7.3l-10,0.1c-4.4,0-8.4,2.5-10.4,6.4l-15.1,29.5
	l-3.1,3.1c-1.1,1.1-2.3,2-3.6,2.7l-18.9,10.3l-10.8-3.7c21.7-12,38.5-26.7,50.1-43.9l0,0c2.3-3.5,4.5-7.1,6.6-10.9
	c3.8-6.9,6.9-14.1,10.7-21c2.4-4.3,5-8.6,7.9-12.8c1.8-2.6,3.7-5.1,5.7-7.6c2.1-2.6,4.5-5.3,6.9-7.8c6-6.3,12.6-12.1,19.6-17.3
	c0.2-0.1,0.4-0.3,0.6-0.4c0.3-0.1,0.5-0.1,0.8,0l13,4.1l-18.1,18.1c-5.9,5.9-6.6,15.1-1.9,21.9l-6.9,7c-2.2-1.9-5.6-1.6-7.5,0.6
	c-0.1,0.2-0.3,0.3-0.4,0.5l-2.8,3.9c-0.9,1.3-0.6,3.1,0.7,4c1.3,0.9,3.1,0.6,4-0.7l0,0l2.5-3.6c0.9,0.8,2.1,1.2,3.3,1.2
	c1.4,0,2.8-0.5,3.8-1.6l30.5-30.5c6.2-6.2,7.1-18.4-0.2-24.3h-0.1l-0.2-0.1h-0.1l-0.2-0.1h-0.1l-0.2-0.1l0,0l0,0l-17.4-5.5
	c-1.2-0.4-2.5-0.4-3.8-0.1L329.5,180c-3.8-3.8-8.1-7.1-12.7-9.7L306,164c-3.3-1.9-7.5-0.7-9.4,2.6c-0.7,1.2-1,2.6-0.9,3.9l0.3,3.6
	c0.1,1.6,1.5,2.8,3.1,2.6c1.6-0.1,2.8-1.5,2.6-3.1l-0.3-3.6c0-0.6,0.4-1.2,1.1-1.2c0.2,0,0.5,0,0.7,0.1l10.7,6
	c4.2,2.4,8.1,5.4,11.5,8.8l0.3,0.3l-13,13c-5.8,5.8-5.8,15.2,0,21l1,1c-0.4,0.5-0.8,1-1.2,1.5c-1.8,2.2-3.5,4.4-5.1,6.8l-8.8,14
	l-0.2,0.4c-0.8,1.5-1.5,2.8-2.2,4.1l-6.9,14c-0.5,0.9-1,1.8-1.5,2.8l-0.6,1.1l-9.1,14.1c-11.7,15.6-28.3,29-49.4,39.8
	c-3.6-0.9-7.3-0.5-10.7,1c-3-3.5-4.3-8.2-3.5-12.7c0.3-1.6-0.8-3-2.4-3.3s-3,0.8-3.3,2.4l0,0c-1.1,6.6,1,13.4,5.7,18.2
	C214.4,324.5,214.9,325.6,215.7,326.5z M362.8,205.7c2.6,4.4,1.8,10-1.8,13.7l-19.2,19.2c-2.6-4.4-1.9-10,1.8-13.7L362.8,205.7z
	 M316.8,214c-3.5-3.6-3.5-9.3,0-12.9l13-13l7.9,7.9c-7.3,5.6-14,11.8-20.2,18.6L316.8,214z M302.8,277.6l-17,17l7-13.6
	c1-2,3.1-3.3,5.3-3.3L302.8,277.6L302.8,277.6z M221,323.6c2.2-0.9,4.7-0.9,7-0.1l12.1,4.1l-3.2,1.7c-3.9,2.1-8.8,1.4-12-1.7
	L221,323.6z"/>
<path class="st2" d="M216,296.5c1.1,0.9,2.8,0.8,3.8-0.2c0.1-0.1,0.1-0.1,0.2-0.2l9.2-11.2c3.8-4.7,7.4-9.5,10.7-14.6
	c0.1-0.1,0.2-0.3,0.3-0.4c6.5-10,11.8-20.6,16-31.8l3.5,0.3c1.6,0.1,2.9-1,3.1-2.6c0.1-1.6-1-3-2.6-3.1l-2-0.2
	c0.8-2.2,1.4-4.5,2.1-6.7l4,0.4c1.6,0.1,2.9-1,3.1-2.6c0.1-1.6-1-3-2.6-3.1l-3-0.3c0.1-0.2,0.1-0.5,0.2-0.8l1.6-6.4l5.6,0.5
	c1.6,0.1,2.9-1,3.1-2.6c0.1-1.6-1-3-2.6-3.1l-4.7-0.4c0.6-2.5,3-4.3,5.6-4.2c12,0.4,23.1-6.3,28.3-17.2c0.6-1.5-0.1-3.1-1.5-3.8
	c-1.4-0.6-2.9,0-3.7,1.3c-3.3,6.9-9.7,11.9-17.1,13.4c-3.8-4.3-8.7-7.6-14.1-9.5c-2.8-1.1-5.8-1.7-8.8-1.9c-4-0.1-7.4,2.9-7.7,6.9
	c0,0.1,0,0.2,0,0.2c0,4.3,0,8.7-0.2,13h-0.4c-1.6-0.1-2.9,1.2-3,2.8c0,1.5,1,2.7,2.5,2.9l0.6,0.1c-0.2,2.4-0.4,4.8-0.6,7.2l-0.6-0.1
	c-1.6,0-2.9,1.2-3,2.8c0,1.5,1,2.7,2.5,2.9h0.5c-0.3,2.3-0.6,4.6-0.9,6.8l-0.8-0.1c-1.6-0.1-2.9,1.2-3,2.8c0,1.5,1,2.7,2.5,2.9h0.4
	c-1.8,10.3-4.2,20.4-7.3,30.3c-3.2,4.9-6.6,9.5-10.3,14l-9.2,11.2C214.6,293.7,214.8,295.5,216,296.5z M251.4,206.2
	c0.2-4.5,0.3-8.9,0.2-13.4c0.1-0.9,0.9-1.6,1.8-1.5c2.4,0.2,4.8,0.7,7,1.5c3,1.1,5.9,2.7,8.4,4.7c-4.7,0.6-8.5,4-9.6,8.5l-0.2,0.8
	L251.4,206.2z M250.4,219.2c0.2-2.4,0.4-4.8,0.6-7.2l6.7,0.6l-1.3,5.5c-0.1,0.5-0.3,1.1-0.4,1.6L250.4,219.2z M248.9,231.8
	c0.3-2.3,0.6-4.5,0.9-6.8l4.6,0.4c-0.7,2.3-1.4,4.5-2.1,6.7L248.9,231.8z M246.1,247.2c0.7-3.3,1.3-6.5,1.9-9.8l2.2,0.2
	C248.9,240.8,247.6,244,246.1,247.2L246.1,247.2z"/>
<path class="st1" d="M283.5,368l91.9,41.2c1.4,0.6,2.1,2.3,1.4,3.8l-0.6,1.3c-0.6,1.4-2.3,2.1-3.8,1.4l-91.9-41.2
	c-1.4-0.6-2.1-2.3-1.4-3.8l0.6-1.3C280.4,368,282.1,367.3,283.5,368z"/>
<path class="st1" d="M283.8,374.4l-91.9,41.2c-1.4,0.6-3.1,0-3.8-1.4l-0.6-1.3c-0.6-1.4,0-3.1,1.4-3.8l91.9-41.2
	c1.4-0.6,3.1,0,3.8,1.4l0.6,1.3C285.8,372.1,285.2,373.8,283.8,374.4z"/>
<circle class="st2" cx="329" cy="241.4" r="3.1"/>
</svg>
