<svg id="Layer_1" data-name="Layer 1" xmlns="http://www.w3.org/2000/svg" viewBox="0 0 566.93 566.93"><defs><style>.cls-1{fill:#ef3955;}.cls-2{fill:#231f20;}.cls-3{fill:#fff;}</style></defs><circle class="cls-1" cx="285.42" cy="249.65" r="149.18"/><path class="cls-2" d="M119.39,432.16a15.11,15.11,0,0,1,12.67,6.18L125,443.4a6.46,6.46,0,0,0-5.61-2.93c-3.69,0-7.24,2.62-7.24,6.8a7.1,7.1,0,0,0,7.24,7,6.48,6.48,0,0,0,5.61-2.93l7.06,5a15.05,15.05,0,0,1-12.67,6.24c-8.31,0-15.86-6.11-15.86-15.29S111.08,432.16,119.39,432.16Z"/><path class="cls-2" d="M135.93,447.27c0-9.24,6.8-15.11,15.1-15.11S166.2,438,166.2,447.27s-6.93,15.17-15.17,15.17S135.93,456.45,135.93,447.27Zm21.72,0A6.59,6.59,0,1,0,151,454,6.4,6.4,0,0,0,157.65,447.27Z"/><path class="cls-2" d="M181.12,461.94h-8.68V432.79h8.68V437a9.66,9.66,0,0,1,8.42-4.87c6.56,0,10.68,4.06,10.68,12.36v17.42h-8.68V446.4c0-3.94-2.12-5.81-5-5.81s-5.37,1.5-5.37,5.93Z"/><path class="cls-2" d="M216.57,461.94H207.9V432.79h8.67V437a9.66,9.66,0,0,1,8.43-4.87c6.55,0,10.67,4.06,10.67,12.36v17.42H227V446.4c0-3.94-2.13-5.81-5.06-5.81s-5.37,1.5-5.37,5.93Z"/><path class="cls-2" d="M241.6,447.27c0-9.24,6.81-15.11,15.11-15.11s15.17,5.87,15.17,15.11-6.93,15.17-15.17,15.17S241.6,456.45,241.6,447.27Zm21.72,0a6.59,6.59,0,1,0-6.61,6.68A6.39,6.39,0,0,0,263.32,447.27Z"/><path class="cls-1" d="M282.42,416.93a5.09,5.09,0,0,1,5.31,5.06,5.19,5.19,0,0,1-5.31,5.12A5.34,5.34,0,0,1,277,422,5.25,5.25,0,0,1,282.42,416.93Zm4.31,45h-8.61V432.79h8.61Z"/><path class="cls-2" d="M302.27,450c-8.8-2.31-8.74-6.8-8.74-9.48,0-4.31,5.25-8.31,11.36-8.31,5.75,0,12,2.5,12,9.68H308.7c-.06-2.19-1.87-2.56-3.31-2.56-1.93,0-3.12.87-3.05,2.18.06.94.81,1.75,2.55,2.19l4.94,1.31c7.05,2,7.92,6.56,7.92,8.49,0,6.18-6.49,9.11-12.61,9.11-5.86,0-12.17-3.55-12.17-10.05h8.12c.06,1.69,1.87,3.37,4.3,3.37,1.94-.06,3.56-.93,3.56-2.43,0-1.25-.68-1.93-2.87-2.5Z"/><path class="cls-2" d="M331.42,450c-8.8-2.31-8.74-6.8-8.74-9.48,0-4.31,5.25-8.31,11.36-8.31,5.75,0,12,2.5,12,9.68h-8.18c-.06-2.19-1.87-2.56-3.31-2.56-1.93,0-3.12.87-3.05,2.18.06.94.81,1.75,2.55,2.19L339,445c7,2,7.92,6.56,7.92,8.49,0,6.18-6.49,9.11-12.61,9.11-5.86,0-12.17-3.55-12.17-10.05h8.12c.06,1.69,1.87,3.37,4.3,3.37,1.94-.06,3.56-.93,3.56-2.43,0-1.25-.68-1.93-2.87-2.5Z"/><path class="cls-2" d="M379.8,456.63c-3,4.37-8.3,5.93-13.3,5.93a14.87,14.87,0,0,1-15.23-15.29c0-9.24,6.93-15.11,15.23-15.11s14.92,6.18,14.92,15.36c0,.75-.06,1.93-.12,2.68H360c.5,3.38,4.06,4.87,7.18,4.87a7.78,7.78,0,0,0,6.36-2.74Zm-7.12-11.86a5.91,5.91,0,0,0-6.12-5c-2.37,0-5.8,1.25-6.49,5Z"/><path class="cls-2" d="M406.14,432.79h8.67v29.15h-8.67v-4a8.86,8.86,0,0,1-7.55,4.62c-6.56,0-11.55-4.05-11.55-12.36V432.79h8.67v15.54c0,4.68,3.19,5.81,5.18,5.81,2.69,0,5.25-1.5,5.25-5.93Z"/><path class="cls-2" d="M431.48,461.94H422.8V432.79h8.68v7c1.5-5.43,5.24-7.68,8.24-7.68a10.86,10.86,0,0,1,5,1.07l-1.56,7.8a9.66,9.66,0,0,0-4.43-.88c-5,0-7.24,3.87-7.24,11.62Z"/><path class="cls-1" d="M450.39,452.14a5.21,5.21,0,1,1-5.37,5.18A5.26,5.26,0,0,1,450.39,452.14Z"/><polygon class="cls-3" points="282.17 352.64 172.65 401.73 391.7 401.73 282.17 352.64"/><path class="cls-3" d="M215.72,326.5l5.15,5.15a15.91,15.91,0,0,0,18.75,2.71l8.91-4.83.05,0,20-10.86a21.33,21.33,0,0,0,4.89-3.66l3.42-3.42h0L310.51,278a12.58,12.58,0,0,0,1.37-1.63l6-8.52a2.87,2.87,0,0,0-4.69-3.3L308,271.84l-10,.08a11.77,11.77,0,0,0-10.39,6.4l-15.15,29.5-3.11,3.11a15.33,15.33,0,0,1-3.58,2.67l-18.93,10.28-10.84-3.68c21.71-12,38.53-26.7,50.06-43.87v0c2.3-3.5,4.51-7.14,6.57-10.85,3.82-6.86,6.88-14.09,10.67-21,2.36-4.29,5-8.59,7.87-12.77,1.79-2.58,3.7-5.13,5.66-7.55,2.14-2.65,4.45-5.28,6.86-7.83A148,148,0,0,1,343.32,199a2.82,2.82,0,0,0,.62-.42,1.16,1.16,0,0,1,.78,0l13,4.1-18.13,18.13a17,17,0,0,0-1.86,21.85l-6.94,7a5.3,5.3,0,0,0-7.84,1.07l-2.77,3.94a2.86,2.86,0,1,0,4.68,3.29l2.55-3.62a5.09,5.09,0,0,0,3.3,1.22,5.33,5.33,0,0,0,3.84-1.57l30.55-30.54c6.18-6.18,7.11-18.42-.24-24.27l-.06,0-.2-.14-.08,0-.21-.11-.08,0-.24-.09,0,0h-.05l-17.41-5.51a7,7,0,0,0-3.77-.1l-13.23-13.23a60.27,60.27,0,0,0-12.73-9.73L306,164a6.89,6.89,0,0,0-10.29,6.48l.27,3.64a2.86,2.86,0,0,0,5.71-.42l-.26-3.64a1.16,1.16,0,0,1,1.73-1.09L313.87,175a54.64,54.64,0,0,1,11.53,8.81l.3.29-13,13a14.85,14.85,0,0,0,0,21l1,1c-.42.5-.84,1-1.24,1.5-1.76,2.18-3.47,4.44-5.11,6.75l-8.78,14-.21.38c-.81,1.47-1.52,2.82-2.18,4.09l-6.92,14c-.48.9-1,1.84-1.55,2.84l-.64,1.13L278,277.86c-11.72,15.58-28.33,29-49.45,39.84a16.15,16.15,0,0,0-10.67,1A15.61,15.61,0,0,1,214.35,306a2.86,2.86,0,1,0-5.65-.92,21.33,21.33,0,0,0,5.69,18.2A4.56,4.56,0,0,0,215.72,326.5ZM362.79,205.69A11.31,11.31,0,0,1,361,219.36l-19.18,19.17a11.29,11.29,0,0,1,1.77-13.66Zm-46,8.32a9.11,9.11,0,0,1,0-12.87l13-13,7.92,7.93a152.53,152.53,0,0,0-20.18,18.6Zm-14,63.6-17,17,7-13.64a6,6,0,0,1,5.34-3.29l4.62,0Zm-81.82,46a10.44,10.44,0,0,1,7-.14l12.11,4.12-3.18,1.73a10.17,10.17,0,0,1-12-1.73Z"/><path class="cls-3" d="M216,296.45a2.87,2.87,0,0,0,3.84-.19,1.29,1.29,0,0,0,.19-.21l9.19-11.18a163.86,163.86,0,0,0,10.67-14.57,4.17,4.17,0,0,0,.29-.44,166.23,166.23,0,0,0,16-31.75l3.48.3a2.92,2.92,0,0,0,3.11-2.61,2.87,2.87,0,0,0-2.61-3.1l-2-.17c.75-2.23,1.44-4.48,2.09-6.74l4,.35a2.92,2.92,0,0,0,3.1-2.6,2.88,2.88,0,0,0-2.61-3.11l-3-.26c.07-.25.13-.5.19-.75l1.56-6.39,5.6.49a2.92,2.92,0,0,0,3.1-2.61,2.87,2.87,0,0,0-2.6-3.1l-4.73-.41a5.59,5.59,0,0,1,5.58-4.22A30.37,30.37,0,0,0,298.78,186a2.87,2.87,0,0,0-5.17-2.48,24.64,24.64,0,0,1-17.14,13.43,33.88,33.88,0,0,0-14.13-9.47,29.53,29.53,0,0,0-8.76-1.86,7.48,7.48,0,0,0-7.73,6.89,2.09,2.09,0,0,0,0,.25c0,4.32,0,8.66-.22,13l-.38,0a2.87,2.87,0,0,0-.5,5.71l.56.05c-.16,2.41-.36,4.83-.59,7.24l-.62-.06a2.87,2.87,0,0,0-.49,5.71l.5,0c-.28,2.29-.58,4.57-.92,6.84l-.81-.07a2.87,2.87,0,0,0-.5,5.71l.39,0A245.12,245.12,0,0,1,235,267.24a156.42,156.42,0,0,1-10.26,14l-9.19,11.19A2.87,2.87,0,0,0,216,296.45Zm35.36-90.22q.3-6.69.24-13.37a1.77,1.77,0,0,1,1.82-1.53,24.12,24.12,0,0,1,7.05,1.54,28.73,28.73,0,0,1,8.38,4.67,11.36,11.36,0,0,0-9.59,8.54l-.2.82Zm-.91,13q.35-3.62.59-7.24l6.65.58-1.34,5.53c-.13.54-.27,1.07-.41,1.61Zm-1.52,12.54q.49-3.4.91-6.84l4.56.4q-1,3.39-2.15,6.73Zm-2.78,15.46q1-4.89,1.87-9.79l2.2.19C248.94,240.83,247.58,244,246.12,247.19Z"/><rect class="cls-1" x="274.85" y="388.26" width="106.34" height="7.08" rx="2.84" transform="translate(188.93 -99.89) rotate(24.14)"/><rect class="cls-1" x="183.24" y="388.26" width="106.34" height="7.08" rx="2.84" transform="translate(612.37 652.64) rotate(155.86)"/><circle class="cls-3" cx="329.03" cy="241.44" r="3.13"/></svg>